<?xml version="1.0" standalone="no"?>
<!DOCTYPE svg PUBLIC "-//W3C//DTD SVG 20010904//EN" "http://www.w3.org/TR/2001/REC-SVG-20010904/DTD/svg10.dtd">
<svg version="1.0" xmlns="http://www.w3.org/2000/svg"
    width="512.000000pt" height="512.000000pt" viewBox="0 0 512.000000 512.000000"
    preserveAspectRatio="xMidYMid meet">

    <g transform="translate(0.000000,512.000000) scale(0.100000,-0.100000)"
        fill="#b61c4a" stroke="none">
        <path
            d="M2321 5109 c-486 -43 -989 -249 -1376 -564 -114 -92 -294 -274 -384
-387 -229 -287 -417 -675 -495 -1023 -49 -218 -60 -325 -60 -575 0 -250 11
-357 60 -575 79 -355 272 -749 509 -1040 92 -114 274 -294 387 -384 287 -229
675 -417 1023 -495 218 -49 325 -60 575 -60 250 0 357 11 575 60 261 58 603
204 828 353 389 259 688 599 893 1016 165 337 246 658 261 1033 23 598 -168
1183 -545 1672 -84 109 -323 348 -432 432 -528 407 -1164 595 -1819 537z m535
-179 c153 -21 414 -80 437 -100 4 -3 -160 -73 -364 -153 l-371 -147 -356 141
c-197 78 -366 145 -377 149 -49 18 314 100 533 120 114 10 385 5 498 -10z
m762 -229 c349 -176 683 -461 886 -755 l38 -55 -89 -377 -88 -377 -460 -154
c-253 -84 -464 -153 -470 -153 -6 0 -184 140 -398 310 l-387 310 2 467 3 467
440 177 c242 97 441 178 443 178 1 1 37 -17 80 -38z m-1588 -145 l435 -173 3
-466 2 -467 -387 -310 c-214 -170 -392 -310 -398 -310 -6 0 -217 69 -470 153
l-460 154 -88 377 -89 377 38 55 c161 233 454 506 704 655 113 66 236 129 255
128 11 0 216 -78 455 -173z m-1511 -1164 c36 -152 66 -282 68 -287 3 -9 -342
-433 -398 -490 -20 -20 -20 -20 -14 70 19 272 65 490 151 718 40 106 115 267
123 267 3 0 35 -125 70 -278z m4200 188 c137 -295 200 -547 226 -900 6 -85 6
-85 -13 -65 -56 56 -402 481 -399 490 2 5 32 135 68 288 35 152 67 277 70 277
3 0 25 -40 48 -90z m-1775 -584 l373 -298 -104 -416 c-57 -229 -108 -434 -114
-454 l-10 -38 -529 0 -529 0 -10 38 c-6 20 -57 225 -114 454 l-104 416 376
301 c207 166 380 300 384 298 5 -1 176 -137 381 -301z m-1769 -179 l460 -153
118 -468 118 -468 -228 -304 c-125 -167 -234 -304 -242 -304 -8 0 -198 29
-423 65 -225 36 -411 65 -413 65 -2 0 -33 51 -69 114 -144 247 -245 527 -290
801 -31 185 -57 131 239 489 143 173 262 315 265 316 3 0 212 -69 465 -153z
m3486 -149 c139 -167 258 -310 265 -318 11 -13 11 -33 -1 -115 -43 -311 -143
-601 -300 -870 l-65 -113 -63 -10 c-252 -43 -788 -125 -790 -121 -2 2 -106
139 -231 305 l-227 301 118 468 118 469 455 152 c250 84 458 153 462 153 4 1
121 -135 259 -301z m-1317 -1349 c226 -299 228 -302 214 -328 -9 -14 -109
-189 -222 -388 -117 -205 -214 -364 -224 -367 -55 -16 -196 -39 -322 -53 -209
-22 -464 -10 -695 33 -28 5 -55 44 -280 397 -138 216 -250 399 -249 407 0 8
99 147 219 308 l220 292 555 0 556 0 228 -301z m-2277 -321 l332 -52 207 -324
c113 -177 205 -325 203 -326 -8 -7 -187 66 -304 124 -207 102 -406 240 -576
398 -108 101 -225 232 -207 232 7 0 162 -23 345 -52z m3272 -30 c-190 -210
-412 -384 -659 -516 -95 -51 -310 -146 -310 -136 0 6 350 617 358 626 8 7 608
105 656 107 27 1 25 -2 -45 -81z" />
    </g>
</svg>