<?xml version="1.0" standalone="no"?>
<!DOCTYPE svg PUBLIC "-//W3C//DTD SVG 20010904//EN" "http://www.w3.org/TR/2001/REC-SVG-20010904/DTD/svg10.dtd">
<svg version="1.0" xmlns="http://www.w3.org/2000/svg"
    width="512.000000pt" height="512.000000pt" viewBox="0 0 512.000000 512.000000"
    preserveAspectRatio="xMidYMid meet">

    <g transform="translate(0.000000,512.000000) scale(0.100000,-0.100000)"
        fill="#00ff00" stroke="none">
        <path
            d="M1950 5100 c-335 -71 -600 -330 -673 -656 -9 -38 -66 -379 -128 -759
l-111 -690 -49 -52 c-76 -84 -92 -138 -97 -327 -6 -237 17 -324 114 -419 69
-68 137 -98 237 -106 74 -5 82 -8 80 -26 -2 -11 -68 -450 -148 -976 -155
-1023 -152 -1000 -103 -1047 33 -30 72 -42 139 -42 74 0 123 20 147 59 10 16
123 380 252 809 l234 779 83 52 83 51 550 0 550 0 83 -51 84 -51 32 -112 c45
-152 55 -174 87 -187 37 -14 79 4 94 41 10 24 0 66 -88 356 -55 181 -97 332
-95 337 2 4 78 7 168 7 l163 0 6 -28 c10 -48 286 -1876 286 -1894 0 -24 -47
-25 -54 0 -43 145 -280 936 -287 960 -15 46 -64 70 -105 51 -60 -29 -61 -25
106 -580 85 -281 163 -524 172 -541 24 -38 73 -58 147 -58 68 0 106 12 139 43
49 46 52 23 -106 1063 l-148 972 85 11 c104 13 174 45 236 108 96 95 119 182
113 424 -3 160 -4 166 -35 231 -17 37 -52 87 -76 112 l-45 45 -71 432 c-61
376 -73 435 -92 455 -24 25 -58 31 -89 14 -41 -22 -39 -49 21 -420 32 -195 61
-369 64 -386 l5 -31 -132 24 c-387 69 -731 98 -1183 97 -407 0 -657 -15 -695
-43 -35 -25 -39 -82 -9 -112 20 -20 28 -21 104 -15 531 40 1012 30 1493 -34
225 -30 421 -68 470 -91 48 -23 88 -70 108 -126 16 -47 19 -305 3 -368 -14
-54 -67 -118 -123 -148 l-41 -22 -1345 0 -1345 0 -41 22 c-61 32 -111 96 -125
157 -6 30 -10 109 -7 196 4 163 16 199 82 257 47 42 68 48 315 87 235 37 254
46 254 107 0 39 -32 69 -75 69 -16 0 -115 -14 -220 -31 -104 -17 -191 -29
-193 -27 -6 7 216 1346 231 1393 63 192 197 344 379 431 149 71 175 74 740 74
524 0 578 -4 694 -50 184 -72 339 -231 413 -423 11 -29 33 -124 48 -212 23
-133 32 -162 50 -177 32 -26 72 -23 100 7 l24 26 -18 122 c-33 233 -72 345
-167 482 -126 182 -320 310 -542 356 -84 17 -139 19 -607 18 -458 0 -524 -2
-600 -19z m-137 -3017 c2 -5 -123 -431 -279 -948 -156 -517 -286 -950 -289
-963 -7 -28 -55 -32 -55 -4 0 19 276 1846 286 1895 l6 27 163 0 c90 0 166 -3
168 -7z m1363 -103 c18 -58 31 -106 29 -108 -1 -1 -15 4 -31 13 -44 22 -1184
22 -1228 0 -16 -9 -30 -14 -31 -13 -3 3 47 172 59 204 5 12 85 14 588 12 l582
-3 32 -105z" />
    </g>
</svg>