<?xml version="1.0" standalone="no"?>
<!DOCTYPE svg PUBLIC "-//W3C//DTD SVG 20010904//EN"
 "http://www.w3.org/TR/2001/REC-SVG-20010904/DTD/svg10.dtd">
<svg version="1.0" xmlns="http://www.w3.org/2000/svg"
 width="512.000000pt" height="512.000000pt" viewBox="0 0 512.000000 512.000000"
 preserveAspectRatio="xMidYMid meet">

<g transform="translate(0.000000,512.000000) scale(0.100000,-0.100000)"
fill="#b61c4a" stroke="none">
<path d="M605 4604 c-11 -2 -45 -9 -75 -15 -30 -6 -95 -30 -145 -54 -365 -175
-494 -629 -278 -975 22 -34 214 -235 506 -527 l472 -473 -472 -472 c-292 -293
-484 -494 -506 -528 -216 -345 -86 -801 278 -975 50 -24 110 -48 135 -53 182
-43 376 -10 531 89 45 29 274 250 777 752 392 392 734 739 759 772 188 246
188 584 0 830 -25 33 -367 380 -759 772 -734 733 -772 767 -897 814 -98 37
-252 57 -326 43z m225 -375 c61 -28 112 -77 776 -742 439 -439 721 -729 737
-757 57 -101 57 -239 0 -340 -16 -28 -298 -318 -737 -757 -813 -815 -757 -768
-926 -768 -89 0 -99 2 -158 34 -132 72 -200 213 -172 355 7 33 21 79 32 101
13 25 232 253 601 623 l582 582 -582 583 c-660 661 -637 632 -637 782 0 98 30
171 97 239 54 54 94 76 167 92 74 17 142 8 220 -27z"/>
<path d="M2995 4604 c-11 -2 -45 -9 -75 -15 -30 -6 -98 -31 -150 -56 -166 -80
-295 -231 -352 -413 -19 -61 -23 -97 -23 -195 0 -105 4 -131 29 -208 16 -48
46 -116 68 -150 27 -42 194 -216 511 -534 l472 -473 -472 -472 c-317 -319
-484 -493 -511 -535 -22 -34 -52 -102 -68 -150 -25 -77 -29 -103 -29 -208 0
-98 4 -134 23 -195 36 -116 85 -195 177 -287 68 -67 99 -89 176 -126 119 -57
179 -71 304 -71 127 0 234 29 342 91 70 41 154 122 823 792 807 808 792 791
847 956 23 69 27 96 27 205 0 109 -4 136 -27 205 -55 166 -39 148 -847 956
-817 819 -804 807 -973 856 -77 22 -228 37 -272 27z m225 -375 c61 -28 112
-77 781 -747 539 -541 720 -728 737 -763 50 -106 51 -214 1 -314 -15 -29 -255
-275 -753 -773 -703 -702 -733 -731 -791 -752 -49 -18 -75 -21 -140 -18 -135
7 -229 68 -287 186 -29 59 -33 76 -33 147 1 150 -22 122 638 783 l582 582
-582 583 c-660 661 -637 632 -637 782 0 65 4 90 25 135 49 106 131 173 239
196 74 16 142 8 220 -27z"/>
</g>
</svg>
